<svg width="1440" height="1024" viewBox="0 0 1440 1024" fill="none" xmlns="http://www.w3.org/2000/svg">
<g clip-path="url(#clip0_338_18)">
<rect width="1440" height="1024" fill="#FFF8D9"/>
<g clip-path="url(#clip1_338_18)">
<path fill-rule="evenodd" clip-rule="evenodd" d="M953.717 392.473L845.771 416.115C845.771 416.115 870.108 487.636 878.2 511.419C879.671 515.741 884.151 518.269 888.61 517.292C904.646 513.78 941.055 505.806 957.087 502.295C961.549 501.318 964.563 497.148 964.092 492.608C961.502 467.619 953.717 392.473 953.717 392.473Z" stroke="#FBF1C1" stroke-width="8" stroke-miterlimit="2" stroke-linecap="round" stroke-linejoin="round"/>
<path fill-rule="evenodd" clip-rule="evenodd" d="M959.743 375.863C959.234 373.538 957.819 371.51 955.819 370.228C953.813 368.944 951.384 368.509 949.059 369.018C925.916 374.087 863.343 387.791 840.2 392.86C837.875 393.369 835.846 394.78 834.565 396.785C833.279 398.786 832.846 401.219 833.355 403.544C833.772 405.447 834.214 407.467 834.631 409.37C835.14 411.695 836.551 413.724 838.555 415.005C840.557 416.29 842.99 416.724 845.315 416.215C868.458 411.146 931.031 397.442 954.174 392.373C956.499 391.864 958.524 390.454 959.809 388.448C961.091 386.448 961.528 384.014 961.019 381.689C960.602 379.786 960.16 377.766 959.743 375.863Z" stroke="#FBF1C1" stroke-width="8" stroke-miterlimit="2" stroke-linecap="round" stroke-linejoin="round"/>
<path fill-rule="evenodd" clip-rule="evenodd" d="M938.013 371.438L851.246 390.441L849.738 383.556C848.678 378.715 851.741 373.933 856.583 372.872C873.216 369.229 909.188 361.351 925.821 357.708C930.663 356.648 935.445 359.712 936.505 364.553C937.288 368.128 938.013 371.438 938.013 371.438Z" stroke="#FBF1C1" stroke-width="8" stroke-miterlimit="2" stroke-linecap="round" stroke-linejoin="round"/>
<path fill-rule="evenodd" clip-rule="evenodd" d="M902.887 436.442C907.149 447.15 909.97 449.189 908.142 465.203C907.312 472.482 909.536 478.71 912.598 483.584L912.201 483.736C903.511 485.639 894.141 476.603 891.287 463.572C888.433 450.541 893.168 438.415 901.858 436.511L902.887 436.442Z" stroke="#FBF1C1" stroke-width="8" stroke-miterlimit="2" stroke-linecap="round" stroke-linejoin="round"/>
<path fill-rule="evenodd" clip-rule="evenodd" d="M912.283 434.228C920.642 433.077 929.424 441.915 932.171 454.458C934.985 467.305 930.42 479.275 921.993 481.366C918.931 476.493 916.708 470.268 917.538 462.99C919.366 446.976 916.545 444.936 912.283 434.228Z" stroke="#FBF1C1" stroke-width="8" stroke-miterlimit="2" stroke-linecap="round" stroke-linejoin="round"/>
<path d="M981.66 488.723C981.66 488.723 1019.15 484.303 1041.46 481.675C1051.58 480.485 1058.91 471.42 1057.95 461.271C1055.65 437.548 1041.9 400.312 976.415 408.033C968.843 408.926 962.06 410.243 955.985 411.914" stroke="#FBF1C1" stroke-width="8" stroke-miterlimit="2" stroke-linecap="round" stroke-linejoin="round"/>
<path d="M1002.69 409.215C1006.3 413.408 1013.15 423.574 1017.49 443.847" stroke="#FBF1C1" stroke-width="8" stroke-miterlimit="2" stroke-linecap="round" stroke-linejoin="round"/>
<path d="M968.626 410.517C968.626 410.517 979.718 419.017 985.834 447.578" stroke="#FBF1C1" stroke-width="8" stroke-miterlimit="2" stroke-linecap="round" stroke-linejoin="round"/>
<path d="M890.526 365.438L888.428 337.16L920.542 334.222" stroke="#FBF1C1" stroke-width="8" stroke-miterlimit="2" stroke-linecap="round" stroke-linejoin="round"/>
</g>
<g clip-path="url(#clip2_338_18)">
<path fill-rule="evenodd" clip-rule="evenodd" d="M1175.85 968.801C1156.25 972.874 1133.59 943.709 1125.28 903.711C1116.97 863.717 1126.13 827.935 1145.73 823.867C1165.33 819.794 1187.98 848.96 1196.29 888.954C1204.6 928.953 1195.44 964.73 1175.85 968.801Z" stroke="#FBF1C1" stroke-width="8" stroke-miterlimit="2" stroke-linecap="round" stroke-linejoin="round"/>
<path d="M1175.85 968.801C1153.59 973.426 1131.77 970.005 1114.25 960.696" stroke="#FBF1C1" stroke-width="8" stroke-miterlimit="2" stroke-linecap="round" stroke-linejoin="round"/>
<path d="M1106.46 841.959C1117.36 833.373 1130.73 826.984 1145.73 823.867" stroke="#FBF1C1" stroke-width="8" stroke-miterlimit="2" stroke-linecap="round" stroke-linejoin="round"/>
<path fill-rule="evenodd" clip-rule="evenodd" d="M976.294 846.454C988.999 830.987 1024.94 839.487 1056.5 865.422C1088.07 891.357 1103.37 924.969 1090.67 940.432C1077.96 955.895 1042.02 947.396 1010.46 921.46C978.894 895.529 963.587 861.917 976.294 846.454Z" stroke="#FBF1C1" stroke-width="8" stroke-miterlimit="2" stroke-linecap="round" stroke-linejoin="round"/>
<path fill-rule="evenodd" clip-rule="evenodd" d="M989.082 859.066C997.93 848.297 1024.55 855.517 1048.48 875.185C1072.42 894.852 1084.66 919.56 1075.81 930.334C1066.96 941.105 1040.34 933.881 1016.41 914.215C992.476 894.55 980.229 869.836 989.082 859.066Z" stroke="#FBF1C1" stroke-width="8" stroke-miterlimit="2" stroke-linecap="round" stroke-linejoin="round"/>
<path d="M976.294 846.454C1002.53 814.524 1044.29 804.221 1075.45 819.941C1076.59 818.772 1077.92 817.745 1079.43 816.913C1087.81 812.265 1098.39 815.293 1103.04 823.674C1106.63 830.144 1105.64 837.923 1101.15 843.271C1118.57 870.781 1115.28 910.47 1090.67 940.432" stroke="#FBF1C1" stroke-width="8" stroke-miterlimit="2" stroke-linecap="round" stroke-linejoin="round"/>
<path d="M1091.37 859.508C1091.37 859.508 1097.34 873.278 1094.61 885.628" stroke="#FBF1C1" stroke-width="8" stroke-miterlimit="2" stroke-linecap="round" stroke-linejoin="round"/>
<path d="M1031.31 908.769L1048.57 877.938" stroke="#FBF1C1" stroke-width="8" stroke-miterlimit="2" stroke-linecap="round" stroke-linejoin="round"/>
<path d="M1010.29 877.669L1048.6 907.515" stroke="#FBF1C1" stroke-width="8" stroke-miterlimit="2" stroke-linecap="round" stroke-linejoin="round"/>
<path d="M1074.66 927.823L1063.68 919.27" stroke="#FBF1C1" stroke-width="8" stroke-miterlimit="2" stroke-linecap="round" stroke-linejoin="round"/>
<path d="M1036.51 895.303L1032.11 883.274" stroke="#FBF1C1" stroke-width="8" stroke-miterlimit="2" stroke-linecap="round" stroke-linejoin="round"/>
<path d="M1000.6 896.839L1021.59 901.1" stroke="#FBF1C1" stroke-width="8" stroke-miterlimit="2" stroke-linecap="round" stroke-linejoin="round"/>
<path fill-rule="evenodd" clip-rule="evenodd" d="M1172.06 951.318C1158.4 954.118 1142.27 931.756 1136.04 901.407C1129.82 871.059 1135.86 844.151 1149.51 841.351C1163.17 838.548 1179.31 860.914 1185.53 891.258C1191.75 921.607 1185.72 948.519 1172.06 951.318Z" stroke="#FBF1C1" stroke-width="8" stroke-miterlimit="2" stroke-linecap="round" stroke-linejoin="round"/>
<path d="M1170.53 886.117L1137.7 899.207" stroke="#FBF1C1" stroke-width="8" stroke-miterlimit="2" stroke-linecap="round" stroke-linejoin="round"/>
<path d="M1167.28 923.509L1156.3 876.207" stroke="#FBF1C1" stroke-width="8" stroke-miterlimit="2" stroke-linecap="round" stroke-linejoin="round"/>
<path d="M1148.83 844.028L1151.97 857.577" stroke="#FBF1C1" stroke-width="8" stroke-miterlimit="2" stroke-linecap="round" stroke-linejoin="round"/>
<path d="M1158.01 893.305L1153.86 905.419" stroke="#FBF1C1" stroke-width="8" stroke-miterlimit="2" stroke-linecap="round" stroke-linejoin="round"/>
<path d="M1186.89 914.711L1173.25 898.195" stroke="#FBF1C1" stroke-width="8" stroke-miterlimit="2" stroke-linecap="round" stroke-linejoin="round"/>
</g>
<g clip-path="url(#clip3_338_18)">
<path d="M140.075 637.778C133.028 655.703 121.968 681.037 124.495 693.067" stroke="#FBF1C1" stroke-width="8" stroke-linecap="round" stroke-linejoin="round"/>
<path d="M211.878 518.075C211.878 518.075 160.696 584.682 139.555 638.455" stroke="#FBF1C1" stroke-width="8" stroke-linecap="round" stroke-linejoin="round"/>
<path d="M193.359 550.928L212.546 552.219" stroke="#FBF1C1" stroke-width="8" stroke-linecap="round" stroke-linejoin="round"/>
<path d="M155.343 609.155L193.716 611.736" stroke="#FBF1C1" stroke-width="8" stroke-linecap="round" stroke-linejoin="round"/>
<path d="M151.737 552.575L169.633 573.052" stroke="#FBF1C1" stroke-width="8" stroke-linecap="round" stroke-linejoin="round"/>
<path d="M118.668 568.126C110.608 558.57 99.2734 553.627 90.3129 562.749C86.6398 566.729 84.5657 571.925 84.4887 577.34C84.4116 582.755 86.3371 588.008 89.8955 592.091L111.823 618.087C116.883 624.353 120.446 631.692 122.24 639.544C125.169 645.173 129.389 650.029 134.555 653.715" stroke="#FBF1C1" stroke-width="8" stroke-linecap="round" stroke-linejoin="round"/>
<path d="M141.054 645.257L186.843 639.413C193.737 638.352 200.728 638.062 207.686 638.547C212.645 639.014 217.612 637.732 221.725 634.922C225.837 632.111 228.837 627.951 230.204 623.161C231.573 617.716 230.822 611.954 228.102 607.042C225.383 602.13 220.898 598.435 215.557 596.705L210.905 593.13C209.805 592.749 208.806 592.122 207.984 591.298C207.162 590.474 206.538 589.474 206.16 588.373C205.781 587.272 205.658 586.099 205.799 584.944C205.94 583.788 206.342 582.68 206.974 581.702L208.046 580.307C208.879 579.027 210.075 578.024 211.48 577.427C212.886 576.829 214.437 576.665 215.937 576.953L223.781 578.475C229.075 579.585 234.593 578.703 239.278 575.998C243.962 573.293 247.484 568.955 249.17 563.815C250.025 560.959 250.271 557.955 249.893 554.997C249.515 552.04 248.522 549.194 246.977 546.644C245.431 544.094 243.369 541.896 240.922 540.193C238.475 538.489 235.698 537.317 232.77 536.753L225.544 535.303C227.591 532.639 228.794 531.074 228.794 531.074C232.241 526.587 233.765 520.915 233.03 515.305C232.296 509.695 229.362 504.607 224.876 501.159C220.39 497.712 214.717 496.188 209.107 496.923C203.497 497.657 198.409 500.591 194.961 505.077C194.019 506.303 183.815 519.582 170.854 538.814L164.216 529.946C160.971 525.363 156.105 522.184 150.604 521.054C145.102 519.924 139.378 520.928 134.589 523.861C132.155 525.471 130.077 527.563 128.484 530.008C126.89 532.453 125.816 535.199 125.326 538.076C124.837 540.953 124.943 543.9 125.638 546.734C126.332 549.568 127.601 552.23 129.366 554.554L133.843 559.407C134.693 560.616 135.176 562.044 135.234 563.521C135.293 564.997 134.924 566.459 134.172 567.731C131.567 572.523 123.099 572.338 119.553 568.201" stroke="#FBF1C1" stroke-width="8" stroke-linecap="round" stroke-linejoin="round"/>
<path d="M119.241 594.865L142.345 626.071" stroke="#FBF1C1" stroke-width="8" stroke-linecap="round" stroke-linejoin="round"/>
<path d="M3157.08 1254.39L239.066 -987.843L-2003.16 1930.17L914.849 4172.4L3157.08 1254.39Z" stroke="#FBF1C1" stroke-width="8" stroke-linecap="round" stroke-linejoin="round"/>
</g>
<g clip-path="url(#clip4_338_18)">
<path d="M254.448 102.312L165.868 244" stroke="#F9EBB0" stroke-opacity="0.58" stroke-width="8" stroke-miterlimit="2" stroke-linecap="round" stroke-linejoin="round"/>
<path d="M185.628 74.472L153.672 232.212" stroke="#F9EBB0" stroke-opacity="0.58" stroke-width="8" stroke-miterlimit="2" stroke-linecap="round" stroke-linejoin="round"/>
<path d="M196.528 91.82C216.088 93.34 234.008 100.732 248.532 112.232" stroke="#F9EBB0" stroke-opacity="0.58" stroke-width="8" stroke-miterlimit="2" stroke-linecap="round" stroke-linejoin="round"/>
<path d="M258.8 121.644C275.04 138.844 285 162.032 285 187.528C285 240.512 241.984 283.528 189 283.528C136.016 283.528 93 240.512 93 187.528C93 137.72 131.016 96.72 179.588 91.984" stroke="#F9EBB0" stroke-opacity="0.58" stroke-width="8" stroke-miterlimit="2" stroke-linecap="round" stroke-linejoin="round"/>
<path d="M239.464 131.66C250.596 141.692 258.852 155.128 262.42 170.84" stroke="#F9EBB0" stroke-opacity="0.58" stroke-width="8" stroke-miterlimit="2" stroke-linecap="round" stroke-linejoin="round"/>
<path d="M252.308 228.26C242.016 244.26 225.692 256.404 205.688 260.948C197.168 262.888 188.652 263.292 180.428 262.348" stroke="#F9EBB0" stroke-opacity="0.58" stroke-width="8" stroke-miterlimit="2" stroke-linecap="round" stroke-linejoin="round"/>
<path d="M157.692 215C162.028 221.36 168.212 226.176 175.344 228.844" stroke="#F9EBB0" stroke-opacity="0.58" stroke-width="8" stroke-miterlimit="2" stroke-linecap="round" stroke-linejoin="round"/>
<path d="M187 231.168C196.14 231.5 205.144 228.436 212.224 222.468C222.536 213.776 226.5 199.668 222.212 186.884C221.544 184.888 220.86 182.848 220.176 180.812" stroke="#F9EBB0" stroke-opacity="0.58" stroke-width="8" stroke-miterlimit="2" stroke-linecap="round" stroke-linejoin="round"/>
<path d="M213.048 168.532C205.652 160.252 194.544 155.704 182.952 156.956C180.472 157.224 178.056 157.484 175.816 157.724C173.756 157.948 171.688 157.972 169.648 157.804" stroke="#F9EBB0" stroke-opacity="0.58" stroke-width="8" stroke-miterlimit="2" stroke-linecap="round" stroke-linejoin="round"/>
<path d="M153.344 151.808C151.7 150.628 149.984 149.396 148.304 148.192C145.64 146.28 142.208 145.796 139.12 146.9C136.032 148.004 133.68 150.556 132.832 153.724C130.432 162.692 131.792 172.256 136.596 180.204C140.056 185.928 144.408 193.128 149 200.724" stroke="#F9EBB0" stroke-opacity="0.58" stroke-width="8" stroke-miterlimit="2" stroke-linecap="round" stroke-linejoin="round"/>
<path d="M233.044 216.048C240.972 210.012 245.892 200.564 246.008 190.264C246.032 188.16 246.06 186.012 246.084 183.864C246.276 167.296 234.912 152.828 218.772 149.092C216.344 148.528 213.976 147.98 211.784 147.472C203.98 145.668 197.116 141.044 192.504 134.496C191.34 132.84 190.124 131.112 188.936 129.424C187.048 126.74 183.964 125.156 180.684 125.184" stroke="#F9EBB0" stroke-opacity="0.58" stroke-width="8" stroke-miterlimit="2" stroke-linecap="round" stroke-linejoin="round"/>
<path d="M149 173C152.314 173 155 170.314 155 167C155 163.686 152.314 161 149 161C145.686 161 143 163.686 143 167C143 170.314 145.686 173 149 173Z" stroke="#F9EBB0" stroke-opacity="0.58" stroke-width="8" stroke-miterlimit="2" stroke-linecap="round" stroke-linejoin="round"/>
</g>
<g clip-path="url(#clip5_338_18)">
<path d="M1286 109.016C1286 73.416 1260 43.84 1226 38.1V37C1226 30.384 1220.62 25 1214 25C1207.38 25 1202 30.384 1202 37V38.1C1168 43.84 1142 73.416 1142 109.016C1142 148.716 1174.3 181.016 1214 181.016C1253.7 181.016 1286 148.716 1286 109.016ZM1214 33C1216.21 33 1218 34.792 1218 37V37.22C1216.67 37.144 1215.35 37.016 1214 37.016C1212.65 37.016 1211.33 37.144 1210 37.22V37C1210 34.792 1211.79 33 1214 33ZM1150 109.016C1150 73.728 1178.71 45.016 1214 45.016C1249.29 45.016 1278 73.728 1278 109.016C1278 144.304 1249.29 173.016 1214 173.016C1178.71 173.016 1150 144.304 1150 109.016Z" fill="#FBF1C1"/>
<path d="M1326 137C1286.3 137 1254 169.3 1254 209C1254 248.7 1286.3 281 1326 281C1365.7 281 1398 248.7 1398 209C1398 169.3 1365.7 137 1326 137ZM1326 273C1290.71 273 1262 244.288 1262 209C1262 173.712 1290.71 145 1326 145C1361.29 145 1390 173.712 1390 209C1390 244.288 1361.29 273 1326 273Z" fill="#FBF1C1"/>
<path d="M1238.12 145.04C1240.32 145.04 1242.12 143.252 1242.12 141.04C1242.12 138.828 1240.32 137.04 1238.12 137.04H1238.07C1235.86 137.04 1234.1 138.828 1234.1 141.04C1234.1 143.252 1235.91 145.04 1238.12 145.04Z" fill="#FBF1C1"/>
<path d="M1246.11 157.04C1248.32 157.04 1250.11 155.252 1250.11 153.04C1250.11 150.828 1248.32 149.04 1246.11 149.04H1246.07C1243.86 149.04 1242.09 150.828 1242.09 153.04C1242.09 155.252 1243.9 157.04 1246.11 157.04Z" fill="#FBF1C1"/>
<path d="M1230.12 157.04C1232.32 157.04 1234.12 155.252 1234.12 153.04C1234.12 150.828 1232.32 149.04 1230.12 149.04H1230.07C1227.86 149.04 1226.1 150.828 1226.1 153.04C1226.1 155.252 1227.91 157.04 1230.12 157.04Z" fill="#FBF1C1"/>
<path d="M1386 208.972C1385.99 192.512 1379.32 177.584 1368.54 166.74C1368.5 166.688 1368.48 166.624 1368.44 166.576C1368.39 166.528 1368.33 166.512 1368.28 166.472C1357.42 155.684 1342.48 149 1326 149C1309.53 149 1294.59 155.68 1283.74 166.464C1283.69 166.508 1283.62 166.524 1283.58 166.568C1283.53 166.612 1283.51 166.676 1283.47 166.728C1272.68 177.584 1266 192.524 1266 209C1266 225.488 1272.69 240.436 1283.49 251.292C1283.52 251.332 1283.54 251.38 1283.57 251.42C1283.61 251.46 1283.66 251.472 1283.7 251.504C1294.56 262.308 1309.51 269 1326 269C1342.47 269 1357.41 262.32 1368.26 251.536C1368.31 251.492 1368.38 251.476 1368.42 251.432C1368.47 251.388 1368.49 251.324 1368.53 251.272C1379.31 240.424 1385.99 225.496 1386 209.028C1386 209.016 1386 209.008 1386 209C1386 208.992 1386 208.984 1386 208.972ZM1365.44 242.788L1335.66 213H1377.8C1376.93 224.332 1372.43 234.644 1365.44 242.788ZM1274.2 213H1316.35L1286.56 242.788C1279.57 234.64 1275.07 224.328 1274.2 213ZM1286.56 175.212L1316.34 205H1274.2C1275.07 193.668 1279.57 183.356 1286.56 175.212ZM1330 157.204C1341.33 158.072 1351.65 162.572 1359.8 169.56L1330 199.348V157.204ZM1322 199.344L1292.21 169.556C1300.36 162.568 1310.67 158.072 1322 157.204V199.344ZM1322 218.66V260.796C1310.67 259.928 1300.36 255.432 1292.21 248.444L1322 218.66ZM1330 218.656L1359.79 248.444C1351.64 255.432 1341.33 259.928 1330 260.796V218.656ZM1335.66 205L1365.45 175.22C1372.44 183.364 1376.93 193.672 1377.8 205H1335.66Z" fill="#FBF1C1"/>
</g>
<g clip-path="url(#clip6_338_18)">
<path d="M1370.33 533.916C1370.33 548.676 1354.2 561.776 1329.37 569.9" stroke="#FBF1C1" stroke-width="8" stroke-miterlimit="2" stroke-linecap="round" stroke-linejoin="round"/>
<path d="M1265 578.548C1246.47 578.548 1229.11 576.304 1214.21 572.392" stroke="#FBF1C1" stroke-width="8" stroke-miterlimit="2" stroke-linecap="round" stroke-linejoin="round"/>
<path d="M1237.11 488.072C1245.99 486.988 1255.34 486.408 1265 486.408C1272.38 486.408 1279.58 486.748 1286.53 487.392" stroke="#FBF1C1" stroke-width="8" stroke-miterlimit="2" stroke-linecap="round" stroke-linejoin="round"/>
<path d="M1311.97 491.324C1346.55 499.016 1370.33 514.936 1370.33 533.308V574.088C1370.33 576.72 1369.17 579.216 1367.15 580.912C1365.14 582.604 1362.48 583.324 1359.89 582.876C1357.79 582.512 1355.61 582.136 1353.56 581.78C1347.85 580.792 1342 582.536 1337.76 586.492C1325.41 598.028 1290.08 602.756 1267.02 602.988C1249.83 603.16 1244.55 599.624 1234.48 595.244C1234.48 595.244 1223.8 605.932 1214.37 617.932C1207.63 626.504 1200.22 624.056 1196.16 618.888C1190.13 611.204 1187.74 593.276 1182.7 590.036C1176.76 586.22 1170.85 582.42 1166.5 579.624C1162.24 576.888 1159.67 572.176 1159.67 567.116C1159.67 554.924 1159.67 533.308 1159.67 533.308C1159.67 517.536 1177.19 503.572 1204.03 495.068" stroke="#FBF1C1" stroke-width="8" stroke-miterlimit="2" stroke-linecap="round" stroke-linejoin="round"/>
<path d="M1365.23 582.144V612.96C1365.23 637.592 1320.32 657.592 1265 657.592C1218.49 657.592 1179.34 643.456 1168.05 624.316C1165.91 620.692 1164.77 616.884 1164.77 612.96V578.26" stroke="#FBF1C1" stroke-width="8" stroke-miterlimit="2" stroke-linecap="round" stroke-linejoin="round"/>
<path d="M1344.29 523.76L1345.02 531.04" stroke="#FBF1C1" stroke-width="8" stroke-miterlimit="2" stroke-linecap="round" stroke-linejoin="round"/>
<path d="M1191.76 539.048L1187.39 533.224" stroke="#FBF1C1" stroke-width="8" stroke-miterlimit="2" stroke-linecap="round" stroke-linejoin="round"/>
<path d="M1247.86 545.836C1260.05 545.836 1269.93 535.952 1269.93 523.76C1269.93 511.568 1260.05 501.684 1247.86 501.684C1235.66 501.684 1225.78 511.568 1225.78 523.76C1225.78 535.952 1235.66 545.836 1247.86 545.836Z" stroke="#FBF1C1" stroke-width="8" stroke-miterlimit="2" stroke-linecap="round" stroke-linejoin="round"/>
<path d="M1286.53 527.4C1293.93 527.4 1299.93 521.402 1299.93 514.004C1299.93 506.606 1293.93 500.608 1286.53 500.608C1279.13 500.608 1273.14 506.606 1273.14 514.004C1273.14 521.402 1279.13 527.4 1286.53 527.4Z" stroke="#FBF1C1" stroke-width="8" stroke-miterlimit="2" stroke-linecap="round" stroke-linejoin="round"/>
<path d="M1286.53 500.608C1286.53 500.608 1283.74 486.424 1294.36 479.06" stroke="#FBF1C1" stroke-width="8" stroke-miterlimit="2" stroke-linecap="round" stroke-linejoin="round"/>
<path d="M1247.33 514.136C1247.33 514.136 1247.59 482.408 1214.38 476" stroke="#FBF1C1" stroke-width="8" stroke-miterlimit="2" stroke-linecap="round" stroke-linejoin="round"/>
</g>
<g clip-path="url(#clip7_338_18)">
<path d="M421 852.512C421 865.964 406.3 877.904 383.668 885.308" stroke="#FBF1C1" stroke-width="8" stroke-miterlimit="2" stroke-linecap="round" stroke-linejoin="round"/>
<path d="M325 893.192C308.112 893.192 292.288 891.144 278.712 887.58" stroke="#FBF1C1" stroke-width="8" stroke-miterlimit="2" stroke-linecap="round" stroke-linejoin="round"/>
<path fill-rule="evenodd" clip-rule="evenodd" d="M235.184 894.624C231.3 891.828 229 887.336 229 882.552C229 871.404 229 851.96 229 851.96C229 828.364 272.016 809.212 325 809.212C377.984 809.212 421 828.364 421 851.96V886.892C421 889.848 419.696 892.648 417.436 894.548C415.176 896.452 412.196 897.26 409.284 896.756C408.092 896.548 406.896 896.34 405.748 896.144C400.524 895.236 395.176 896.832 391.3 900.452C380.052 910.956 365.116 916.592 349.736 916.14C339.16 915.828 327.588 915.488 320.688 915.284C316.572 915.164 312.512 914.344 308.672 912.856C308.672 912.856 308.668 912.856 308.664 912.852C303.428 910.828 297.568 911.212 292.644 913.908C287.72 916.604 284.236 921.336 283.124 926.84C281.076 936.992 278.612 949.192 276.392 960.192C275.728 963.468 272.892 965.856 269.552 965.952C266.208 966.044 263.244 963.816 262.4 960.58C255.836 935.384 247.528 903.508 247.528 903.508C247.528 903.508 240.572 898.5 235.184 894.624Z" stroke="#FBF1C1" stroke-width="8" stroke-miterlimit="2" stroke-linecap="round" stroke-linejoin="round"/>
<path d="M416.356 906.256V958.108C416.356 980.56 375.42 998.788 325 998.788C282.612 998.788 246.928 985.904 236.632 968.46C234.684 965.156 233.644 961.684 233.644 958.108V924.14" stroke="#FBF1C1" stroke-width="8" stroke-miterlimit="2" stroke-linecap="round" stroke-linejoin="round"/>
<path d="M397.264 843.256L397.928 849.892" stroke="#FBF1C1" stroke-width="8" stroke-miterlimit="2" stroke-linecap="round" stroke-linejoin="round"/>
<path d="M258.244 857.192L254.264 851.88" stroke="#FBF1C1" stroke-width="8" stroke-miterlimit="2" stroke-linecap="round" stroke-linejoin="round"/>
<path d="M416.356 895.68V905.584C416.356 928.036 375.42 946.264 325 946.264C317.004 946.264 309.248 945.804 301.856 944.944" stroke="#FBF1C1" stroke-width="8" stroke-miterlimit="2" stroke-linecap="round" stroke-linejoin="round"/>
<path d="M254.856 931.636C246.396 927.124 240.088 921.788 236.632 915.936C234.684 912.628 233.644 909.16 233.644 905.584V892.928" stroke="#FBF1C1" stroke-width="8" stroke-miterlimit="2" stroke-linecap="round" stroke-linejoin="round"/>
<path d="M416.356 909.008V930.2C416.356 952.652 375.42 970.88 325 970.88C315.18 970.88 305.72 970.188 296.856 968.908" stroke="#FBF1C1" stroke-width="8" stroke-miterlimit="2" stroke-linecap="round" stroke-linejoin="round"/>
<path d="M262.176 959.724C250.016 954.588 241.02 947.984 236.632 940.552C234.684 937.244 233.644 933.776 233.644 930.2V906.256" stroke="#FBF1C1" stroke-width="8" stroke-miterlimit="2" stroke-linecap="round" stroke-linejoin="round"/>
</g>
<g clip-path="url(#clip8_338_18)">
<path d="M705 831.56V840.588C705 842.684 706.04 844.648 707.78 845.824C709.516 847 711.724 847.24 713.672 846.46C727.5 840.928 753 830.724 753 830.724" stroke="#FBF1C1" stroke-width="8" stroke-miterlimit="2" stroke-linecap="round" stroke-linejoin="round"/>
<path d="M765 825.924C765 825.924 855.876 789.568 882.036 779.104C886.24 777.424 889 773.348 889 768.816C889 761.436 889 751.268 889 751.268" stroke="#FBF1C1" stroke-width="8" stroke-miterlimit="2" stroke-linecap="round" stroke-linejoin="round"/>
<path d="M711.412 830.876C708.884 832.008 705.916 831.452 703.968 829.48C702.02 827.508 701.504 824.532 702.672 822.016C713.684 798.296 734.004 754.532 743.844 733.332C747.684 725.064 754.724 718.716 763.344 715.756C856.308 683.604 889 751.268 889 751.268L781 799.68" stroke="#FBF1C1" stroke-width="8" stroke-miterlimit="2" stroke-linecap="round" stroke-linejoin="round"/>
<path fill-rule="evenodd" clip-rule="evenodd" d="M780.736 736.32C789.712 736.32 793.536 741.696 789.272 748.32C785.004 754.94 774.256 760.32 765.28 760.32C756.304 760.32 752.48 754.94 756.744 748.32C761.012 741.696 771.76 736.32 780.736 736.32Z" stroke="#FBF1C1" stroke-width="8" stroke-miterlimit="2" stroke-linecap="round" stroke-linejoin="round"/>
<path fill-rule="evenodd" clip-rule="evenodd" d="M832.204 747.576C837.248 747.576 839.396 750.6 837 754.32C834.604 758.04 828.564 761.06 823.524 761.06C818.48 761.06 816.332 758.04 818.728 754.32C821.124 750.6 827.164 747.576 832.204 747.576Z" stroke="#FBF1C1" stroke-width="8" stroke-miterlimit="2" stroke-linecap="round" stroke-linejoin="round"/>
<path fill-rule="evenodd" clip-rule="evenodd" d="M753 821.72C753 819.636 751.944 817.696 750.196 816.564C748.448 815.432 746.244 815.26 744.34 816.112C732.156 821.576 711.412 830.876 711.412 830.876C708.884 832.008 705.916 831.452 703.968 829.48C702.02 827.508 701.504 824.532 702.672 822.016C702.672 822.016 713.968 797.688 719.696 785.348C721.792 780.836 725.476 777.256 730.048 775.296C730.052 775.296 730.052 775.296 730.052 775.296C731.88 774.512 733.944 774.5 735.78 775.26C737.616 776.02 739.068 777.492 739.808 779.336C740.296 780.556 740.808 781.844 741.316 783.112C743.42 788.364 749.116 791.22 754.584 789.764C763.436 787.404 776.808 783.836 787.556 780.972C790.66 780.144 793.96 781.208 795.996 783.692C798.032 786.176 798.424 789.624 797.004 792.504C797 792.508 797 792.508 797 792.508L763 807.748V826.456C763 829.216 760.76 831.456 758 831.456C755.24 831.456 753 829.216 753 826.456V821.72Z" stroke="#FBF1C1" stroke-width="8" stroke-miterlimit="2" stroke-linecap="round" stroke-linejoin="round"/>
</g>
<path fill-rule="evenodd" clip-rule="evenodd" d="M836.36 96.2018L777.729 72.3638C777.729 72.3638 759.934 116.811 747.774 147.188C741.633 162.537 749.038 179.965 764.352 186.192C764.356 186.193 764.36 186.195 764.36 186.195C772.549 189.524 781.728 189.452 789.866 185.994C797.999 182.535 804.423 175.975 807.708 167.768C819.795 137.573 836.36 96.2018 836.36 96.2018Z" stroke="#FBF1C1" stroke-width="8" stroke-miterlimit="2" stroke-linecap="round" stroke-linejoin="round"/>
<path d="M765.826 187.24L743.671 241.732" stroke="#FBF1C1" stroke-width="8" stroke-miterlimit="2" stroke-linecap="round" stroke-linejoin="round"/>
<path d="M726.118 234.596L761.22 248.867" stroke="#FBF1C1" stroke-width="8" stroke-miterlimit="2" stroke-linecap="round" stroke-linejoin="round"/>
<path d="M757.681 83.6954C754.033 77.8424 753.143 70.3775 755.937 63.5039C760.569 52.1133 773.572 46.6271 784.963 51.2582C796.35 55.8878 801.84 68.8932 797.209 80.2837" stroke="#FBF1C1" stroke-width="8" stroke-miterlimit="2" stroke-linecap="round" stroke-linejoin="round"/>
<g clip-path="url(#clip9_338_18)">
<mask id="path-86-inside-1_338_18" fill="white">
<path d="M565.838 305.022C562.013 302.653 558.338 300.052 554.833 297.232C553.379 296.06 552.012 294.991 550.714 293.973C544.235 288.886 539.955 285.531 534.686 277.994L530.502 272.006C526.153 265.785 519.743 261.302 512.408 259.35C505.072 257.399 497.282 258.104 490.417 261.343C483.552 264.581 478.053 270.143 474.893 277.045C471.733 283.947 471.116 291.744 473.151 299.057L475.081 305.997C479.305 321.175 478.31 331.689 476.167 347.201C474.765 357.545 476.126 368.075 480.111 377.723C484.097 387.371 490.565 395.792 498.859 402.13C507.153 408.468 516.977 412.498 527.333 413.81C537.688 415.123 548.207 413.67 557.82 409.601C558.511 409.308 559.195 409.002 559.905 408.667C569.518 404.131 577.729 397.087 583.674 388.276C589.618 379.465 593.076 369.213 593.682 358.602C594.289 347.99 592.021 337.412 587.119 327.981C582.217 318.55 574.862 310.616 565.829 305.015L565.838 305.022ZM583.726 372.836C581.433 379.283 577.883 385.211 573.282 390.276C568.681 395.341 563.121 399.443 556.924 402.345C556.313 402.633 555.698 402.923 555.098 403.162C546.623 406.765 537.345 408.057 528.209 406.907C519.073 405.757 510.404 402.206 503.087 396.615C495.77 391.024 490.066 383.594 486.555 375.081C483.044 366.568 481.852 357.277 483.101 348.154C485.367 331.755 486.417 320.607 481.825 304.12L479.895 297.181C478.303 291.459 478.786 285.359 481.258 279.959C483.73 274.56 488.032 270.208 493.404 267.675C498.775 265.141 504.869 264.589 510.608 266.116C516.347 267.642 521.362 271.15 524.764 276.017L528.948 282.004C534.813 290.394 539.926 294.401 546.394 299.477C547.668 300.479 549.03 301.55 550.452 302.688C554.18 305.692 558.09 308.463 562.16 310.986C572.29 317.27 579.958 326.84 583.883 338.096C587.808 349.353 587.753 361.615 583.726 372.836Z"/>
</mask>
<path d="M565.838 305.022C562.013 302.653 558.338 300.052 554.833 297.232C553.379 296.06 552.012 294.991 550.714 293.973C544.235 288.886 539.955 285.531 534.686 277.994L530.502 272.006C526.153 265.785 519.743 261.302 512.408 259.35C505.072 257.399 497.282 258.104 490.417 261.343C483.552 264.581 478.053 270.143 474.893 277.045C471.733 283.947 471.116 291.744 473.151 299.057L475.081 305.997C479.305 321.175 478.31 331.689 476.167 347.201C474.765 357.545 476.126 368.075 480.111 377.723C484.097 387.371 490.565 395.792 498.859 402.13C507.153 408.468 516.977 412.498 527.333 413.81C537.688 415.123 548.207 413.67 557.82 409.601C558.511 409.308 559.195 409.002 559.905 408.667C569.518 404.131 577.729 397.087 583.674 388.276C589.618 379.465 593.076 369.213 593.682 358.602C594.289 347.99 592.021 337.412 587.119 327.981C582.217 318.55 574.862 310.616 565.829 305.015L565.838 305.022ZM583.726 372.836C581.433 379.283 577.883 385.211 573.282 390.276C568.681 395.341 563.121 399.443 556.924 402.345C556.313 402.633 555.698 402.923 555.098 403.162C546.623 406.765 537.345 408.057 528.209 406.907C519.073 405.757 510.404 402.206 503.087 396.615C495.77 391.024 490.066 383.594 486.555 375.081C483.044 366.568 481.852 357.277 483.101 348.154C485.367 331.755 486.417 320.607 481.825 304.12L479.895 297.181C478.303 291.459 478.786 285.359 481.258 279.959C483.73 274.56 488.032 270.208 493.404 267.675C498.775 265.141 504.869 264.589 510.608 266.116C516.347 267.642 521.362 271.15 524.764 276.017L528.948 282.004C534.813 290.394 539.926 294.401 546.394 299.477C547.668 300.479 549.03 301.55 550.452 302.688C554.18 305.692 558.09 308.463 562.16 310.986C572.29 317.27 579.958 326.84 583.883 338.096C587.808 349.353 587.753 361.615 583.726 372.836Z" fill="#FBF1C1"/>
<path d="M565.838 305.022L561.625 311.823L570.783 298.734L565.838 305.022ZM554.833 297.232L549.813 303.461L549.819 303.466L554.833 297.232ZM550.714 293.973L545.774 300.265L545.777 300.268L550.714 293.973ZM534.686 277.994L528.128 282.576L528.129 282.577L534.686 277.994ZM530.502 272.006L537.059 267.424L537.058 267.423L530.502 272.006ZM490.417 261.343L487.004 254.107L490.417 261.343ZM473.151 299.057L480.858 296.913L480.858 296.912L473.151 299.057ZM475.081 305.997L467.373 308.14L467.374 308.141L475.081 305.997ZM476.167 347.201L468.242 346.106L468.241 346.116L468.24 346.126L476.167 347.201ZM557.82 409.601L560.938 416.968L560.94 416.967L557.82 409.601ZM559.905 408.667L563.318 415.902L563.319 415.902L559.905 408.667ZM565.829 305.015L570.044 298.216L560.883 311.303L565.829 305.015ZM583.726 372.836L576.196 370.134L576.193 370.144L576.189 370.154L583.726 372.836ZM556.924 402.345L553.532 395.099L553.521 395.104L553.511 395.109L556.924 402.345ZM555.098 403.162L552.139 395.729L552.053 395.763L551.968 395.799L555.098 403.162ZM483.101 348.154L475.177 347.059L475.175 347.069L483.101 348.154ZM481.825 304.12L474.117 306.264L474.118 306.267L481.825 304.12ZM479.895 297.181L487.602 295.037L487.602 295.036L479.895 297.181ZM493.404 267.675L496.816 274.91L493.404 267.675ZM524.764 276.017L531.322 271.435L531.321 271.434L524.764 276.017ZM528.948 282.004L522.391 286.587L522.391 286.588L528.948 282.004ZM546.394 299.477L551.339 293.188L551.333 293.183L546.394 299.477ZM550.452 302.688L555.471 296.458L555.461 296.45L555.451 296.442L550.452 302.688ZM562.16 310.986L566.378 304.188L566.375 304.186L562.16 310.986ZM570.05 298.221C566.505 296.025 563.097 293.612 559.847 290.998L549.819 303.466C553.58 306.491 557.522 309.281 561.625 311.823L570.05 298.221ZM559.853 291.003C558.35 289.791 556.937 288.687 555.651 287.678L545.777 300.268C547.087 301.295 548.409 302.329 549.813 303.461L559.853 291.003ZM555.654 287.681C549.273 282.671 545.793 279.921 541.242 273.41L528.129 282.577C534.116 291.142 539.196 295.101 545.774 300.265L555.654 287.681ZM541.243 273.411L537.059 267.424L523.944 276.589L528.128 282.576L541.243 273.411ZM537.058 267.423C531.628 259.654 523.625 254.056 514.464 251.619L510.351 267.081C515.862 268.547 520.677 271.915 523.945 276.59L537.058 267.423ZM514.464 251.619C505.304 249.182 495.577 250.063 487.004 254.107L493.83 268.578C498.988 266.145 504.84 265.615 510.351 267.081L514.464 251.619ZM487.004 254.107C478.431 258.151 471.564 265.096 467.619 273.715L482.167 280.375C484.541 275.19 488.672 271.011 493.83 268.578L487.004 254.107ZM467.619 273.715C463.673 282.333 462.903 292.07 465.444 301.202L480.858 296.912C479.329 291.418 479.793 285.56 482.167 280.375L467.619 273.715ZM465.443 301.2L467.373 308.14L482.788 303.853L480.858 296.913L465.443 301.2ZM467.374 308.141C471.144 321.69 470.348 330.863 468.242 346.106L484.092 348.295C486.272 332.516 487.466 320.661 482.788 303.852L467.374 308.141ZM468.24 346.126C466.648 357.869 468.193 369.825 472.717 380.778L487.505 374.669C484.059 366.326 482.882 357.22 484.095 348.275L468.24 346.126ZM472.717 380.778C477.242 391.731 484.586 401.291 494.002 408.486L503.717 395.774C496.545 390.293 490.952 383.011 487.505 374.669L472.717 380.778ZM494.002 408.486C503.417 415.682 514.57 420.257 526.327 421.747L528.338 405.874C519.384 404.739 510.889 401.254 503.717 395.774L494.002 408.486ZM526.327 421.747C538.084 423.237 550.025 421.588 560.938 416.968L554.701 402.234C546.389 405.753 537.293 407.009 528.338 405.874L526.327 421.747ZM560.94 416.967C561.732 416.632 562.514 416.282 563.318 415.902L556.493 401.431C555.877 401.722 555.29 401.984 554.699 402.235L560.94 416.967ZM563.319 415.902C574.233 410.752 583.556 402.754 590.306 392.75L577.042 383.802C571.902 391.42 564.803 397.51 556.492 401.432L563.319 415.902ZM590.306 392.75C597.055 382.746 600.981 371.107 601.669 359.058L585.695 358.145C585.171 367.32 582.182 376.184 577.042 383.802L590.306 392.75ZM601.669 359.058C602.358 347.01 599.784 334.999 594.218 324.291L580.021 331.67C584.259 339.824 586.22 348.971 585.695 358.145L601.669 359.058ZM594.218 324.291C588.652 313.583 580.301 304.575 570.044 298.216L561.613 311.814C569.423 316.657 575.783 323.516 580.021 331.67L594.218 324.291ZM560.883 311.303L560.892 311.31L570.783 298.734L570.774 298.727L560.883 311.303ZM576.189 370.154C574.25 375.604 571.249 380.615 567.36 384.897L579.204 395.655C584.516 389.806 588.615 382.961 591.264 375.517L576.189 370.154ZM567.36 384.897C563.471 389.179 558.771 392.647 553.532 395.099L560.315 409.59C567.471 406.24 573.891 401.504 579.204 395.655L567.36 384.897ZM553.511 395.109C552.855 395.419 552.468 395.598 552.139 395.729L558.056 410.595C558.928 410.248 559.771 409.847 560.336 409.58L553.511 395.109ZM551.968 395.799C544.795 398.849 536.941 399.943 529.208 398.969L527.21 414.844C537.749 416.171 548.452 414.68 558.228 410.524L551.968 395.799ZM529.208 398.969C521.475 397.996 514.138 394.99 507.944 390.258L498.23 402.972C506.671 409.421 516.671 413.518 527.21 414.844L529.208 398.969ZM507.944 390.258C501.751 385.526 496.922 379.237 493.951 372.031L479.159 378.131C483.209 387.952 489.789 396.523 498.23 402.972L507.944 390.258ZM493.951 372.031C490.979 364.826 489.97 356.961 491.027 349.239L475.175 347.069C473.735 357.593 475.109 368.311 479.159 378.131L493.951 372.031ZM491.026 349.249C493.334 332.549 494.573 320.075 489.532 301.974L474.118 306.267C478.26 321.139 477.401 330.961 475.177 347.059L491.026 349.249ZM489.532 301.977L487.602 295.037L472.187 299.324L474.117 306.264L489.532 301.977ZM487.602 295.036C486.516 291.134 486.846 286.973 488.532 283.29L473.984 276.629C470.726 283.746 470.09 291.785 472.188 299.325L487.602 295.036ZM488.532 283.29C490.218 279.606 493.153 276.638 496.816 274.91L489.991 260.439C482.912 263.778 477.242 269.513 473.984 276.629L488.532 283.29ZM496.816 274.91C500.48 273.182 504.637 272.805 508.552 273.847L512.665 258.385C505.101 256.373 497.07 257.1 489.991 260.439L496.816 274.91ZM508.552 273.847C512.466 274.888 515.887 277.28 518.207 280.601L531.321 271.434C526.837 265.019 520.229 260.397 512.665 258.385L508.552 273.847ZM518.207 280.6L522.391 286.587L535.506 277.422L531.322 271.435L518.207 280.6ZM522.391 286.588C528.974 296.004 534.886 300.615 541.455 305.77L551.333 293.183C544.965 288.187 540.652 284.784 535.505 277.421L522.391 286.588ZM541.449 305.765C542.726 306.77 544.062 307.82 545.452 308.933L555.451 296.442C553.999 295.28 552.611 294.188 551.339 293.188L541.449 305.765ZM545.432 308.917C549.417 312.128 553.596 315.09 557.946 317.786L566.375 304.186C562.584 301.837 558.943 299.256 555.471 296.458L545.432 308.917ZM557.943 317.784C566.517 323.103 573.007 331.203 576.329 340.73L591.437 335.462C586.909 322.477 578.064 311.438 566.378 304.188L557.943 317.784ZM576.329 340.73C579.651 350.258 579.604 360.637 576.196 370.134L591.256 375.538C595.901 362.594 595.965 348.448 591.437 335.462L576.329 340.73Z" fill="#FBF1C1" mask="url(#path-86-inside-1_338_18)"/>
<mask id="path-88-inside-2_338_18" fill="white">
<path d="M522.23 328.791C516.999 331.259 512.617 335.222 509.638 340.18C506.659 345.139 505.217 350.869 505.495 356.647C505.773 362.424 507.758 367.99 511.199 372.639C514.64 377.289 519.383 380.813 524.827 382.767C530.271 384.721 536.173 385.017 541.785 383.617C547.398 382.217 552.469 379.184 556.357 374.901C560.246 370.619 562.777 365.28 563.631 359.559C564.485 353.838 563.623 347.992 561.155 342.761C557.838 335.754 551.877 330.348 544.581 327.729C537.284 325.11 529.246 325.492 522.23 328.791ZM544.2 375.37C540.221 377.247 535.775 377.901 531.423 377.251C527.072 376.601 523.011 374.675 519.754 371.717C516.498 368.759 514.191 364.902 513.127 360.633C512.062 356.364 512.287 351.875 513.774 347.734C515.26 343.593 517.942 339.986 521.478 337.369C525.015 334.752 529.248 333.242 533.643 333.031C538.037 332.82 542.396 333.917 546.167 336.182C549.938 338.448 552.953 341.782 554.83 345.761C557.335 351.097 557.622 357.209 555.629 362.757C553.635 368.304 549.523 372.835 544.194 375.356L544.2 375.37Z"/>
</mask>
<path d="M522.23 328.791C516.999 331.259 512.617 335.222 509.638 340.18C506.659 345.139 505.217 350.869 505.495 356.647C505.773 362.424 507.758 367.99 511.199 372.639C514.64 377.289 519.383 380.813 524.827 382.767C530.271 384.721 536.173 385.017 541.785 383.617C547.398 382.217 552.469 379.184 556.357 374.901C560.246 370.619 562.777 365.28 563.631 359.559C564.485 353.838 563.623 347.992 561.155 342.761C557.838 335.754 551.877 330.348 544.581 327.729C537.284 325.11 529.246 325.492 522.23 328.791ZM544.2 375.37C540.221 377.247 535.775 377.901 531.423 377.251C527.072 376.601 523.011 374.675 519.754 371.717C516.498 368.759 514.191 364.902 513.127 360.633C512.062 356.364 512.287 351.875 513.774 347.734C515.26 343.593 517.942 339.986 521.478 337.369C525.015 334.752 529.248 333.242 533.643 333.031C538.037 332.82 542.396 333.917 546.167 336.182C549.938 338.448 552.953 341.782 554.83 345.761C557.335 351.097 557.622 357.209 555.629 362.757C553.635 368.304 549.523 372.835 544.194 375.356L544.2 375.37Z" fill="#FBF1C1"/>
<path d="M522.23 328.791L518.826 321.551L518.818 321.556L522.23 328.791ZM561.155 342.761L568.389 339.347L568.385 339.338L561.155 342.761ZM544.2 375.37L547.613 382.605L554.849 379.192L551.436 371.957L544.2 375.37ZM554.83 345.761L562.071 342.361L562.068 342.354L562.065 342.348L554.83 345.761ZM544.194 375.356L540.773 368.124L533.549 371.542L536.958 378.769L544.194 375.356ZM518.818 321.556C512.155 324.698 506.574 329.746 502.78 336.061L516.495 344.3C518.659 340.698 521.843 337.819 525.643 336.027L518.818 321.556ZM502.78 336.061C498.986 342.375 497.15 349.673 497.504 357.031L513.486 356.262C513.284 352.065 514.331 347.902 516.495 344.3L502.78 336.061ZM497.504 357.031C497.858 364.389 500.386 371.477 504.769 377.398L517.63 367.88C515.13 364.503 513.688 360.459 513.486 356.262L497.504 357.031ZM504.769 377.398C509.151 383.32 515.191 387.809 522.125 390.297L527.53 375.238C523.575 373.818 520.129 371.258 517.63 367.88L504.769 377.398ZM522.125 390.297C529.058 392.786 536.574 393.162 543.722 391.379L539.849 375.855C535.772 376.872 531.485 376.657 527.53 375.238L522.125 390.297ZM543.722 391.379C550.869 389.596 557.328 385.733 562.28 380.279L550.435 369.523C547.61 372.634 543.926 374.838 539.849 375.855L543.722 391.379ZM562.28 380.279C567.232 374.826 570.456 368.026 571.543 360.74L555.719 358.378C555.098 362.534 553.259 366.412 550.435 369.523L562.28 380.279ZM571.543 360.74C572.631 353.454 571.533 346.009 568.389 339.347L553.92 346.175C555.713 349.975 556.339 354.222 555.719 358.378L571.543 360.74ZM568.385 339.338C564.162 330.417 556.573 323.534 547.283 320.199L541.878 335.259C547.181 337.162 551.513 341.091 553.924 346.184L568.385 339.338ZM547.283 320.199C537.992 316.865 527.759 317.351 518.826 321.551L525.635 336.031C530.733 333.633 536.575 333.356 541.878 335.259L547.283 320.199ZM540.787 368.134C538.239 369.336 535.392 369.755 532.605 369.339L530.241 385.163C536.157 386.047 542.203 385.157 547.613 382.605L540.787 368.134ZM532.605 369.339C529.819 368.923 527.219 367.689 525.133 365.795L514.376 377.639C518.804 381.661 524.325 384.279 530.241 385.163L532.605 369.339ZM525.133 365.795C523.047 363.901 521.57 361.431 520.889 358.697L505.364 362.568C506.812 368.373 509.948 373.617 514.376 377.639L525.133 365.795ZM520.889 358.697C520.207 355.963 520.351 353.089 521.303 350.437L506.244 345.031C504.223 350.661 503.917 356.764 505.364 362.568L520.889 358.697ZM521.303 350.437C522.255 347.786 523.972 345.476 526.237 343.8L516.719 330.938C511.911 334.497 508.266 339.401 506.244 345.031L521.303 350.437ZM526.237 343.8C528.502 342.124 531.212 341.157 534.027 341.022L533.258 325.04C527.283 325.328 521.528 327.38 516.719 330.938L526.237 343.8ZM534.027 341.022C536.841 340.887 539.632 341.589 542.047 343.04L550.287 329.325C545.159 326.244 539.233 324.753 533.258 325.04L534.027 341.022ZM542.047 343.04C544.462 344.491 546.392 346.625 547.594 349.174L562.065 342.348C559.514 336.938 555.415 332.406 550.287 329.325L542.047 343.04ZM547.588 349.161C549.194 352.58 549.378 356.496 548.1 360.051L563.157 365.462C565.867 357.922 565.477 349.614 562.071 342.361L547.588 349.161ZM548.1 360.051C546.823 363.606 544.188 366.509 540.773 368.124L547.615 382.588C554.858 379.162 560.447 373.003 563.157 365.462L548.1 360.051ZM536.958 378.769L536.965 378.783L551.436 371.957L551.429 371.943L536.958 378.769Z" fill="#FBF1C1" mask="url(#path-88-inside-2_338_18)"/>
<mask id="path-90-inside-3_338_18" fill="white">
<path d="M464.58 236.722C478.28 239.807 485.393 255.381 485.703 256.036C485.891 256.456 486.16 256.834 486.495 257.149C486.829 257.465 487.222 257.711 487.652 257.874C488.082 258.038 488.54 258.115 488.999 258.101C489.459 258.088 489.911 257.984 490.33 257.795L490.389 257.768C491.219 257.376 491.861 256.675 492.179 255.815C492.497 254.955 492.465 254.004 492.089 253.168C490.98 250.786 489.676 248.5 488.191 246.333L488.819 246.036C492.638 244.225 496.027 241.622 498.763 238.4C501.499 235.179 503.518 231.412 504.687 227.351C505.856 223.289 506.148 219.026 505.543 214.843C504.938 210.66 503.451 206.653 501.18 203.089L499.724 200.801L497.144 201.637C490.391 203.837 484.644 208.373 480.935 214.43C477.226 220.487 475.798 227.668 476.908 234.683C473.65 232.399 469.982 230.767 466.105 229.877C465.657 229.776 465.193 229.765 464.74 229.844C464.287 229.922 463.854 230.089 463.466 230.335C462.681 230.832 462.127 231.62 461.924 232.526C461.823 232.975 461.812 233.439 461.89 233.892C461.969 234.345 462.136 234.778 462.382 235.166C462.879 235.95 463.667 236.505 464.573 236.708L464.58 236.722ZM484.903 222.309C485.905 219.477 487.46 216.873 489.479 214.649C491.497 212.425 493.939 210.626 496.661 209.356C497.945 212.067 498.682 215.004 498.83 218.001C498.977 220.997 498.532 223.993 497.519 226.817C496.507 229.64 494.948 232.237 492.93 234.457C490.913 236.677 488.477 238.477 485.763 239.755C484.471 237.049 483.731 234.113 483.583 231.118C483.435 228.124 483.884 225.129 484.903 222.309Z"/>
</mask>
<path d="M464.58 236.722C478.28 239.807 485.393 255.381 485.703 256.036C485.891 256.456 486.16 256.834 486.495 257.149C486.829 257.465 487.222 257.711 487.652 257.874C488.082 258.038 488.54 258.115 488.999 258.101C489.459 258.088 489.911 257.984 490.33 257.795L490.389 257.768C491.219 257.376 491.861 256.675 492.179 255.815C492.497 254.955 492.465 254.004 492.089 253.168C490.98 250.786 489.676 248.5 488.191 246.333L488.819 246.036C492.638 244.225 496.027 241.622 498.763 238.4C501.499 235.179 503.518 231.412 504.687 227.351C505.856 223.289 506.148 219.026 505.543 214.843C504.938 210.66 503.451 206.653 501.18 203.089L499.724 200.801L497.144 201.637C490.391 203.837 484.644 208.373 480.935 214.43C477.226 220.487 475.798 227.668 476.908 234.683C473.65 232.399 469.982 230.767 466.105 229.877C465.657 229.776 465.193 229.765 464.74 229.844C464.287 229.922 463.854 230.089 463.466 230.335C462.681 230.832 462.127 231.62 461.924 232.526C461.823 232.975 461.812 233.439 461.89 233.892C461.969 234.345 462.136 234.778 462.382 235.166C462.879 235.95 463.667 236.505 464.573 236.708L464.58 236.722ZM484.903 222.309C485.905 219.477 487.46 216.873 489.479 214.649C491.497 212.425 493.939 210.626 496.661 209.356C497.945 212.067 498.682 215.004 498.83 218.001C498.977 220.997 498.532 223.993 497.519 226.817C496.507 229.64 494.948 232.237 492.93 234.457C490.913 236.677 488.477 238.477 485.763 239.755C484.471 237.049 483.731 234.113 483.583 231.118C483.435 228.124 483.884 225.129 484.903 222.309Z" fill="#FBF1C1"/>
<path d="M464.58 236.722L457.344 240.134L459.011 243.668L462.822 244.526L464.58 236.722ZM485.703 256.036L493.001 252.76L492.97 252.691L492.938 252.624L485.703 256.036ZM490.33 257.795L493.609 265.092L493.676 265.062L493.743 265.031L490.33 257.795ZM490.389 257.768L486.978 250.531L486.976 250.532L490.389 257.768ZM492.089 253.168L499.387 249.89L499.365 249.84L499.342 249.791L492.089 253.168ZM488.191 246.333L484.778 239.097L476.279 243.106L481.592 250.856L488.191 246.333ZM488.819 246.036L492.232 253.272L492.24 253.268L492.248 253.264L488.819 246.036ZM501.18 203.089L494.429 207.383L494.433 207.389L501.18 203.089ZM499.724 200.801L506.475 196.508L503.152 191.283L497.26 193.191L499.724 200.801ZM497.144 201.637L494.68 194.026L494.673 194.028L494.666 194.03L497.144 201.637ZM476.908 234.683L472.316 241.233L487.756 252.057L484.81 233.433L476.908 234.683ZM466.105 229.877L467.897 222.08L467.876 222.075L467.856 222.071L466.105 229.877ZM463.466 230.335L467.747 237.093L463.466 230.335ZM461.924 232.526L454.117 230.776L461.924 232.526ZM462.382 235.166L469.14 230.884L462.382 235.166ZM464.573 236.708L471.809 233.295L470.14 229.758L466.324 228.902L464.573 236.708ZM484.903 222.309L492.427 225.028L492.437 225.002L492.446 224.976L484.903 222.309ZM496.661 209.356L503.891 205.93L500.485 198.744L493.279 202.106L496.661 209.356ZM485.763 239.755L478.543 243.2L481.97 250.381L489.169 246.993L485.763 239.755ZM462.822 244.526C467.167 245.505 470.945 248.617 473.944 252.323C476.861 255.926 478.391 259.288 478.467 259.449L492.938 252.624C492.946 252.639 492.864 252.465 492.777 252.282C492.682 252.085 492.557 251.83 492.403 251.526C492.095 250.918 491.669 250.115 491.126 249.174C490.045 247.304 488.468 244.836 486.381 242.257C482.322 237.241 475.693 231.024 466.337 228.917L462.822 244.526ZM478.404 259.313C479.023 260.691 479.907 261.934 481.006 262.97L491.983 251.329C492.413 251.734 492.759 252.22 493.001 252.76L478.404 259.313ZM481.006 262.97C482.105 264.006 483.398 264.816 484.81 265.352L490.495 250.396C491.047 250.606 491.553 250.923 491.983 251.329L481.006 262.97ZM484.81 265.352C486.222 265.889 487.726 266.142 489.235 266.098L488.763 250.105C489.353 250.087 489.942 250.186 490.495 250.396L484.81 265.352ZM489.235 266.098C490.745 266.053 492.232 265.712 493.609 265.092L487.051 250.498C487.59 250.256 488.172 250.122 488.763 250.105L489.235 266.098ZM493.743 265.031L493.802 265.003L486.976 250.532L486.917 250.56L493.743 265.031ZM493.801 265.004C496.526 263.719 498.639 261.415 499.683 258.589L484.676 253.042C485.084 251.936 485.911 251.034 486.978 250.531L493.801 265.004ZM499.683 258.589C500.728 255.762 500.622 252.639 499.387 249.89L484.792 256.446C484.308 255.37 484.267 254.148 484.676 253.042L499.683 258.589ZM499.342 249.791C498.047 247.01 496.524 244.34 494.789 241.809L481.592 250.856C482.829 252.659 483.914 254.562 484.837 256.544L499.342 249.791ZM491.604 253.568L492.232 253.272L485.407 238.801L484.778 239.097L491.604 253.568ZM492.248 253.264C497.092 250.966 501.391 247.665 504.861 243.579L492.665 233.222C490.664 235.579 488.184 237.483 485.391 238.808L492.248 253.264ZM504.861 243.579C508.331 239.493 510.892 234.715 512.375 229.563L496.999 225.138C496.144 228.11 494.667 230.865 492.665 233.222L504.861 243.579ZM512.375 229.563C513.858 224.412 514.228 219.004 513.461 213.698L497.625 215.987C498.068 219.048 497.854 222.167 496.999 225.138L512.375 229.563ZM513.461 213.698C512.694 208.392 510.807 203.311 507.926 198.79L494.433 207.389C496.095 209.996 497.183 212.927 497.625 215.987L513.461 213.698ZM507.93 198.796L506.475 196.508L492.974 205.095L494.429 207.383L507.93 198.796ZM497.26 193.191L494.68 194.026L499.609 209.248L502.189 208.412L497.26 193.191ZM494.666 194.03C486.103 196.82 478.816 202.572 474.113 210.252L487.758 218.608C490.473 214.174 494.679 210.854 499.623 209.243L494.666 194.03ZM474.113 210.252C469.41 217.932 467.599 227.037 469.006 235.933L484.81 233.433C483.997 228.298 485.042 223.041 487.758 218.608L474.113 210.252ZM481.5 228.132C477.398 225.256 472.779 223.201 467.897 222.08L464.314 237.674C467.186 238.333 469.903 239.542 472.316 241.233L481.5 228.132ZM467.856 222.071C466.382 221.74 464.858 221.703 463.37 221.962L466.11 237.725C465.527 237.827 464.931 237.812 464.355 237.683L467.856 222.071ZM463.37 221.962C461.882 222.22 460.46 222.769 459.184 223.578L467.747 237.093C467.248 237.409 466.692 237.624 466.11 237.725L463.37 221.962ZM459.184 223.578C456.607 225.21 454.785 227.799 454.117 230.776L469.73 234.277C469.468 235.441 468.755 236.454 467.747 237.093L459.184 223.578ZM454.117 230.776C453.787 232.249 453.75 233.774 454.009 235.262L469.772 232.522C469.873 233.104 469.859 233.701 469.73 234.277L454.117 230.776ZM454.009 235.262C454.267 236.75 454.816 238.172 455.625 239.448L469.14 230.884C469.456 231.383 469.671 231.94 469.772 232.522L454.009 235.262ZM455.625 239.448C457.257 242.024 459.846 243.847 462.822 244.514L466.324 228.902C467.488 229.163 468.501 229.876 469.14 230.884L455.625 239.448ZM457.338 240.121L457.344 240.134L471.815 233.309L471.809 233.295L457.338 240.121ZM492.446 224.976C493.093 223.146 494.098 221.463 495.402 220.026L483.555 209.273C480.822 212.284 478.716 215.809 477.361 219.643L492.446 224.976ZM495.402 220.026C496.707 218.589 498.285 217.426 500.043 216.606L493.279 202.106C489.594 203.825 486.288 206.262 483.555 209.273L495.402 220.026ZM489.431 212.781C490.265 214.541 490.744 216.448 490.839 218.393L506.82 217.608C506.621 213.56 505.626 209.592 503.891 205.93L489.431 212.781ZM490.839 218.393C490.935 220.339 490.646 222.284 489.989 224.117L505.05 229.516C506.418 225.702 507.019 221.655 506.82 217.608L490.839 218.393ZM489.989 224.117C489.332 225.95 488.319 227.636 487.009 229.077L498.851 239.837C501.576 236.838 503.683 233.331 505.05 229.516L489.989 224.117ZM487.009 229.077C485.7 230.518 484.118 231.687 482.356 232.516L489.169 246.993C492.836 245.268 496.126 242.836 498.851 239.837L487.009 229.077ZM492.983 236.309C492.148 234.56 491.669 232.661 491.573 230.725L475.593 231.512C475.792 235.565 476.795 239.538 478.543 243.2L492.983 236.309ZM491.573 230.725C491.478 228.788 491.768 226.852 492.427 225.028L477.38 219.59C476 223.407 475.393 227.459 475.593 231.512L491.573 230.725Z" fill="#FBF1C1" mask="url(#path-90-inside-3_338_18)"/>
</g>
<g clip-path="url(#clip10_338_18)">
<path fill-rule="evenodd" clip-rule="evenodd" d="M483.008 556.212C513.264 556.212 537.824 610.72 537.824 640.972C537.824 671.224 513.264 695.788 483.008 695.788C452.756 695.788 428.196 671.224 428.196 640.972C428.196 610.72 452.756 556.212 483.008 556.212Z" stroke="#FBF1C1" stroke-width="8" stroke-miterlimit="2" stroke-linecap="round" stroke-linejoin="round"/>
<path d="M535.848 613.5C550.24 590.772 594.616 561.504 617.344 575.896C640.072 590.284 632.6 642.916 618.212 665.644C603.82 688.372 573.684 695.144 550.956 680.752" stroke="#FBF1C1" stroke-width="8" stroke-miterlimit="2" stroke-linecap="round" stroke-linejoin="round"/>
<path fill-rule="evenodd" clip-rule="evenodd" d="M599.724 603.724C610.388 610.476 606.884 635.172 600.132 645.836C593.38 656.5 579.24 659.676 568.576 652.924C557.912 646.172 554.736 632.032 561.488 621.368C568.24 610.704 589.06 596.972 599.724 603.724Z" stroke="#FBF1C1" stroke-width="8" stroke-miterlimit="2" stroke-linecap="round" stroke-linejoin="round"/>
<path d="M500.06 666.356C500.06 666.356 519.78 656.488 514.668 626" stroke="#FBF1C1" stroke-width="8" stroke-miterlimit="2" stroke-linecap="round" stroke-linejoin="round"/>
</g>
</g>
<defs>
<clipPath id="clip0_338_18">
<rect width="1440" height="1024" fill="white"/>
</clipPath>
<clipPath id="clip1_338_18">
<rect width="256" height="256" fill="white" transform="translate(790 317.769) rotate(-12.3535)"/>
</clipPath>
<clipPath id="clip2_338_18">
<rect width="256" height="256" fill="white" transform="translate(927 818.9) rotate(-20.0817)"/>
</clipPath>
<clipPath id="clip3_338_18">
<rect width="256" height="256" fill="white" transform="translate(165.981 429) rotate(37.539)"/>
</clipPath>
<clipPath id="clip4_338_18">
<rect width="256" height="256" fill="white" transform="translate(61 51)"/>
</clipPath>
<clipPath id="clip5_338_18">
<rect width="256" height="256" fill="white" transform="translate(1142 25)"/>
</clipPath>
<clipPath id="clip6_338_18">
<rect width="256" height="256" fill="white" transform="translate(1137 444)"/>
</clipPath>
<clipPath id="clip7_338_18">
<rect width="256" height="256" fill="white" transform="translate(197 784)"/>
</clipPath>
<clipPath id="clip8_338_18">
<rect width="256" height="256" fill="white" transform="translate(665 649)"/>
</clipPath>
<clipPath id="clip9_338_18">
<rect width="256" height="256" fill="white" transform="translate(346 255.209) rotate(-25.2519)"/>
</clipPath>
<clipPath id="clip10_338_18">
<rect width="256" height="256" fill="white" transform="translate(402 498)"/>
</clipPath>
</defs>
</svg>
