<!DOCTYPE svg PUBLIC "-//W3C//DTD SVG 1.1//EN" "http://www.w3.org/Graphics/SVG/1.1/DTD/svg11.dtd">
<!-- Uploaded to: SVG Repo, www.svgrepo.com, Transformed by: SVG Repo Mixer Tools -->
<svg height="800px" width="800px" version="1.1" id="_x32_" xmlns="http://www.w3.org/2000/svg" xmlns:xlink="http://www.w3.org/1999/xlink" viewBox="-138.24 -138.24 788.48 788.48" xml:space="preserve" fill="#243D59" stroke="#243D59">
<g id="SVGRepo_bgCarrier" stroke-width="0">
<rect x="-138.24" y="-138.24" width="788.48" height="788.48" rx="394.24" fill="#ffffff" strokewidth="0"/>
</g>
<g id="SVGRepo_tracerCarrier" stroke-linecap="round" stroke-linejoin="round"/>
<g id="SVGRepo_iconCarrier"> <style type="text/css"> .st0{fill:#243D59;} </style> <g> <path class="st0" d="M222.194,177.764c4.364,1.447,9.093-0.922,10.532-5.277l36.49-109.764c1.446-4.356-0.922-9.077-5.286-10.524 c-4.364-1.454-9.086,0.906-10.532,5.277l-36.474,109.748C215.471,171.597,217.831,176.318,222.194,177.764z"/> <path class="st0" d="M251.086,186.333c4.356,1.446,9.078-0.922,10.524-5.278l33.518-100.83c1.454-4.372-0.907-9.077-5.278-10.523 c-4.363-1.463-9.076,0.906-10.523,5.262L245.8,175.793C244.346,180.165,246.714,184.878,251.086,186.333z"/> <path class="st0" d="M139.979,82.753c7.487,3.552,9.386,11.334,11.501,18.67c3.799,13.059,14.37,34.662,36.235,44.629 c6.136,2.806,14.243,5.834,22.788,8.783l7.4-22.262l-14.354-6.836c-5.397-2.567-6.653-6.548-4.634-10.809 c1.844-3.878,5.198-6.963,10.761-4.57l13.48,6.406l6.295-18.933l-11.27-5.349c-4.952-2.225-5.103-7.344-3.251-11.231 c2.019-4.236,5.913-5.794,11.302-3.234l8.465,4.022l7.789-23.431c-3.759-2.162-7.32-4.133-10.484-5.699 c-21.532-10.642-44.971-5.222-57.481,0.072c-7.026,2.98-14.258,6.43-21.754,2.861L51.437,1.809 c-4.158-2.059-8.974-2.385-13.369-0.85c-4.388,1.51-7.972,4.728-9.975,8.918l-1.216,2.567c-1.995,4.196-2.226,9.013-0.628,13.384 c1.59,4.356,4.865,7.893,9.101,9.824L139.979,82.753z"/> <path class="st0" d="M280.859,197.715c4.38,1.462,9.093-0.914,10.54-5.278l31.927-96.03c1.454-4.355-0.914-9.076-5.277-10.539 c-4.364-1.446-9.093,0.906-10.539,5.278l-31.928,96.037C274.136,191.547,276.496,196.268,280.859,197.715z"/> <path class="st0" d="M230.286,323.296c8.544-6.081,20.307-12.24,35.64-17.796c4.339-1.566,6.564-6.327,5.007-10.658 c-1.566-4.324-6.334-6.573-10.666-5.008c-21.97,7.965-37.913,17.28-48.754,27.246c-5.412,4.976-9.554,10.15-12.415,15.483 c-2.845,5.325-4.403,10.874-4.403,16.358c-0.016,5.898,1.884,11.62,5.294,16.294c3.418,4.682,8.21,8.306,13.838,10.873 c7.217,3.259,15.436,4.515,24.21,4.515c11.342,0,23.726-2.146,36.283-5.819c12.55-3.68,25.259-8.893,37.11-15.228 c4.046-2.17,5.579-7.218,3.417-11.271c-2.178-4.054-7.224-5.588-11.278-3.418c-10.818,5.794-22.557,10.602-33.931,13.925 c-11.374,3.339-22.398,5.167-31.602,5.15c-7.13,0.016-13.122-1.096-17.319-3.036c-3.489-1.574-5.826-3.545-7.248-5.5 c-1.431-2.003-2.091-3.982-2.106-6.486c0-2.313,0.652-5.158,2.432-8.504C216.464,335.408,221.734,329.392,230.286,323.296z"/> <path class="st0" d="M192.826,295.954c-9.45,5.357-16.723,14.1-21.825,24.17c-5.071,10.11-7.972,21.659-7.996,33.231 c0,8.584,1.63,17.208,5.436,25.085c3.768,7.869,9.832,14.927,18.17,19.886c17.382,10.396,36.712,14.18,55.415,14.18 c21.42,0,42.172-4.896,59.444-10.984c8.631-3.06,16.388-6.414,22.938-9.673c6.558-3.266,11.843-6.383,15.746-9.164 c3.752-2.671,4.618-7.877,1.94-11.621c-2.678-3.736-7.869-4.61-11.621-1.94c-2.861,2.051-7.574,4.865-13.496,7.822 c-17.796,8.886-46.695,18.948-74.95,18.9c-16.509-0.007-32.676-3.338-46.87-11.818c-5.469-3.282-9.173-7.622-11.716-12.829 c-2.52-5.222-3.768-11.358-3.768-17.844c-0.008-8.726,2.297-17.971,6.216-25.736c3.902-7.797,9.41-13.973,15.102-17.128 c4.013-2.249,5.428-7.336,3.179-11.342S196.84,293.712,192.826,295.954z"/> <path class="st0" d="M192.58,436.326c18.4,6.033,38.66,8.902,59.253,8.902c34.178-0.024,69.324-7.86,98.446-23.058 c14.053-7.336,24.274-16.595,30.982-26.626c6.708-10.022,9.864-20.784,9.864-30.886c0-10.539-3.434-20.427-9.872-27.834 c-6.391-7.424-16.016-12.145-26.841-12.105c-6.39,0-13.098,1.582-19.862,4.76c-4.165,1.948-5.961,6.916-4.006,11.072 c1.956,4.173,6.915,5.969,11.088,4.014v-0.008c4.88-2.282,9.141-3.164,12.781-3.172c6.137,0.048,10.715,2.377,14.268,6.383 c3.512,4.03,5.778,9.943,5.778,16.89c0,6.653-2.058,14.156-7.05,21.62c-4.984,7.462-12.939,14.894-24.846,21.126 c-26.276,13.766-59.118,21.174-90.728,21.158c-19.052,0-37.642-2.671-54.055-8.067c-16.437-5.382-30.648-13.472-41.282-24.091 c-3.243-3.259-8.529-3.259-11.779,0c-3.251,3.251-3.251,8.52,0,11.779C157.623,421.073,174.196,430.301,192.58,436.326z"/> <path class="st0" d="M160.215,322.08c3.242-3.259,3.242-8.529,0-11.78c-3.259-3.259-8.536-3.259-11.795,0 c-6.104,6.16-10.794,14.505-14.283,23.598c-3.442,9.109-5.572,18.901-5.604,28.121c0.032,6.009,0.899,11.835,3.529,17.144 c2.035,4.118,7.042,5.794,11.159,3.728c4.125-2.05,5.794-7.042,3.736-11.159c-1.017-1.987-1.764-5.444-1.749-9.712 c-0.016-6.533,1.669-14.768,4.514-22.207C152.513,332.38,156.535,325.696,160.215,322.08z"/> <path class="st0" d="M468.992,320.545c-17.192-24.894-45.408-45.146-81.54-59.333c-7.987-3.148-16.436-5.937-25.196-8.456v0.334 c0,6.661-0.779,13.154-2.162,19.497c19.203,5.786,36.26,13.13,50.71,21.715c18.36,10.881,32.539,23.653,41.998,37.388 c9.474,13.774,14.323,28.375,14.331,43.763c-0.008,15.356-4.856,29.964-14.331,43.738c-14.164,20.609-39.065,39.065-72.535,52.188 c-33.446,13.13-75.325,20.959-122.879,20.959c-63.442,0.032-116.17-13.949-152.294-35.719 c-18.074-10.856-31.967-23.622-41.242-37.356c-9.268-13.766-14.021-28.391-14.044-43.81c0.024-15.436,4.777-30.084,14.044-43.842 c13.885-20.586,38.286-39.01,71.358-52.108c33.041-13.122,74.601-20.951,122.179-20.951c15.602,0,30.617,0.85,44.9,2.432 c0.636-2.496,0.977-5.118,0.977-7.924v-11.66c-14.704-1.589-29.972-2.512-45.877-2.512c-66.303,0.016-122.282,14.41-162.42,38.517 c-20.069,12.081-36.204,26.61-47.402,43.19c-11.216,16.581-17.43,35.282-17.415,54.859c-0.016,19.552,6.199,38.27,17.415,54.826 c16.85,24.878,44.629,45.169,80.38,59.389C163.736,503.861,207.657,512,257.388,512c66.28-0.016,122.775-14.418,163.446-38.485 c20.324-12.057,36.72-26.586,48.158-43.166c11.445-16.564,17.828-35.282,17.811-54.898 C486.82,355.819,480.438,337.085,468.992,320.545z"/> <path class="st0" d="M320.044,132.857v133.339c-0.024,7.392-1.669,13.877-4.801,19.981c-4.705,9.124-13.042,17.534-24.79,25.18 c-11.715,7.654-26.722,14.474-44.017,20.586c-4.34,1.526-6.613,6.279-5.079,10.634c1.526,4.332,6.287,6.613,10.627,5.079 c24.138-8.544,44.772-18.519,59.953-31.577c7.575-6.534,13.79-13.902,18.106-22.255c4.332-8.346,6.668-17.66,6.661-27.628V132.857 c0-4.61-3.736-8.329-8.33-8.329C323.772,124.528,320.044,128.248,320.044,132.857z"/> </g> </g>
</svg>